# xmcd
#
# Track frame offsets: 
#        150
#        19810
#        49580
#        71207
#        96622
#        117690
#        158175
#        179222
#        207455
#
# Disc length: 3598 seconds
#
# Revision: 0
# Processed by: cddbd v1.5.1PL2 Copyright (c) Steve Scherf et al.
# Submitted via: ExactAudioCopy v0.95a5
#
DISCID=900e0c09
DTITLE=Black Dog Blues Band - Y'o Paralyzen Me
DYEAR=1995
DGENRE=Blues
TTITLE0=Statesboro Blues
TTITLE1=I Got Some Help I Don't Need
TTITLE2=Superstition
TTITLE3=Red Rooster
TTITLE4=Drown'in In A Sea Of Love
TTITLE5=Stormy Monday
TTITLE6=Mustang Sally
TTITLE7=Moondance
TTITLE8=Mannish Boy
EXTD=
EXTT0=
EXTT1=
EXTT2=
EXTT3=
EXTT4=
EXTT5=
EXTT6=
EXTT7=
EXTT8=
PLAYORDER=
